<svg id="Layer_1" data-name="Layer 1" xmlns="http://www.w3.org/2000/svg" viewBox="0 0 916.67 916.67"><path d="M998.33,540c0,253.13-205.2,458.33-458.33,458.33S81.67,793.13,81.67,540,286.87,81.67,540,81.67,998.33,286.87,998.33,540" transform="translate(-81.67 -81.67)" style="fill:#f89521"/><path d="M722.5,846.67c-75-43.25-66.65-123.52-22.58-185.29L648.82,634c-65.22,45.83-71.13,154-27.28,212.65Z" transform="translate(-81.67 -81.67)" style="fill:#fff"/><path d="M492.75,846.68h98.34c-25.59-51.54-25-119.83-1.93-171.65,30.53-68.71,125.73-106.74,123.43-193.32-3.06-114.74-116.67-225-212.07-277.49,68.87,134.4-313.59,297.68-11.64,452.09,0,0,8.72-23.59,16.44-37.63,7.1-12.9,20.92-31.44,20.92-31.44-181-85.34,17.34-203.59,3-332.25C575,304.66,643,406.13,635.89,475.3c-7.06,68.54-70.51,97.28-106.83,149-36.73,52.32-42.72,146.49-36.31,222.37" transform="translate(-81.67 -81.67)" style="fill:#fff"/><path d="M481.65,677.73s-23.72-11.2-38.06-19.83c-21-12.62-50.65-37.06-50.65-37.06,22.08,78.53,23.39,171.6-37.57,225.84H470.26c-2.07-66.23.48-114.36,11.39-168.95" transform="translate(-81.67 -81.67)" style="fill:#fff"/></svg>